<svg class="fig fig-mermaid" id="mm-decision-pathway" viewBox="-8 -8 361.744384765625 1016.892578125" width="362" height="1017" style="min-width:272px" role="img" aria-label="One decision, end to end" xmlns="http://www.w3.org/2000/svg"><g><marker id="mm-decision-pathway_flowchart-pointEnd" class="marker flowchart" viewBox="0 0 10 10" refX="6" refY="5" markerUnits="userSpaceOnUse" markerWidth="12" markerHeight="12" orient="auto"><path d="M 0 0 L 10 5 L 0 10 z" class="arrowMarkerPath"></path></marker><marker id="mm-decision-pathway_flowchart-pointStart" class="marker flowchart" viewBox="0 0 10 10" refX="4.5" refY="5" markerUnits="userSpaceOnUse" markerWidth="12" markerHeight="12" orient="auto"><path d="M 0 5 L 10 10 L 10 0 z" class="arrowMarkerPath"></path></marker><marker id="mm-decision-pathway_flowchart-circleEnd" class="marker flowchart" viewBox="0 0 10 10" refX="11" refY="5" markerUnits="userSpaceOnUse" markerWidth="11" markerHeight="11" orient="auto"><circle cx="5" cy="5" r="5" class="arrowMarkerPath"></circle></marker><marker id="mm-decision-pathway_flowchart-circleStart" class="marker flowchart" viewBox="0 0 10 10" refX="-1" refY="5" markerUnits="userSpaceOnUse" markerWidth="11" markerHeight="11" orient="auto"><circle cx="5" cy="5" r="5" class="arrowMarkerPath"></circle></marker><marker id="mm-decision-pathway_flowchart-crossEnd" class="marker cross flowchart" viewBox="0 0 11 11" refX="12" refY="5.2" markerUnits="userSpaceOnUse" markerWidth="11" markerHeight="11" orient="auto"><path d="M 1,1 l 9,9 M 10,1 l -9,9" class="arrowMarkerPath"></path></marker><marker id="mm-decision-pathway_flowchart-crossStart" class="marker cross flowchart" viewBox="0 0 11 11" refX="-1" refY="5.2" markerUnits="userSpaceOnUse" markerWidth="11" markerHeight="11" orient="auto"><path d="M 1,1 l 9,9 M 10,1 l -9,9" class="arrowMarkerPath"></path></marker><g class="root"><g class="clusters"></g><g class="edgePaths"><path d="M144.392,43L144.392,45.833C144.392,48.667,144.392,54.333,144.392,59.117C144.392,63.9,144.392,67.8,144.392,69.75L144.392,71.7" id="mm-decision-pathway-L-E-OBS-0" class=" edge-thickness-normal edge-pattern-solid flowchart-link LS-E LE-OBS" marker-end="url(#mm-decision-pathway_flowchart-pointEnd)"></path><path d="M144.392,120L144.392,122.833C144.392,125.667,144.392,131.333,144.392,136.117C144.392,140.9,144.392,144.8,144.392,146.75L144.392,148.7" id="mm-decision-pathway-L-OBS-F-0" class=" edge-thickness-normal edge-pattern-solid flowchart-link LS-OBS LE-F" marker-end="url(#mm-decision-pathway_flowchart-pointEnd)"></path><path d="M144.392,197L144.392,199.833C144.392,202.667,144.392,208.333,144.392,213.117C144.392,217.9,144.392,221.8,144.392,223.75L144.392,225.7" id="mm-decision-pathway-L-F-M-0" class=" edge-thickness-normal edge-pattern-solid flowchart-link LS-F LE-M" marker-end="url(#mm-decision-pathway_flowchart-pointEnd)"></path><path d="M144.392,274L144.392,276.833C144.392,279.667,144.392,285.333,144.392,290.117C144.392,294.9,144.392,298.8,144.392,300.75L144.392,302.7" id="mm-decision-pathway-L-M-C-0" class=" edge-thickness-normal edge-pattern-solid flowchart-link LS-M LE-C" marker-end="url(#mm-decision-pathway_flowchart-pointEnd)"></path><path d="M144.392,351L144.392,353.833C144.392,356.667,144.392,362.333,144.45,367.2C144.508,372.067,144.624,376.135,144.682,378.168L144.74,380.202" id="mm-decision-pathway-L-C-Q-0" class=" edge-thickness-normal edge-pattern-solid flowchart-link LS-C LE-Q" marker-end="url(#mm-decision-pathway_flowchart-pointEnd)"></path><path d="M108.293,472.292L92.874,482.725C77.455,493.158,46.616,514.024,31.197,532.458C15.777,550.891,15.777,566.891,15.777,581.307C15.777,595.724,15.777,608.557,15.777,626.766C15.777,644.974,15.777,668.558,15.777,693.725C15.777,718.892,15.777,745.642,15.777,767.017C15.777,788.393,15.777,804.393,15.777,820.393C15.777,836.393,15.777,852.393,19.534,864.182C23.291,875.971,30.804,883.55,34.56,887.339L38.317,891.129" id="mm-decision-pathway-L-Q-H-0" class=" edge-thickness-normal edge-pattern-solid flowchart-link LS-Q LE-H" marker-end="url(#mm-decision-pathway_flowchart-pointEnd)"></path><path d="M166.513,487.269L170.757,495.206C175.001,503.143,183.489,519.017,187.733,530.487C191.977,541.957,191.977,549.024,191.977,552.557L191.977,556.091" id="mm-decision-pathway-L-Q-MENU-0" class=" edge-thickness-normal edge-pattern-solid flowchart-link LS-Q LE-MENU" marker-end="url(#mm-decision-pathway_flowchart-pointEnd)"></path><path d="M191.977,604.391L191.977,607.224C191.977,610.057,191.977,615.724,192.035,620.591C192.094,625.458,192.21,629.525,192.268,631.559L192.326,633.593" id="mm-decision-pathway-L-MENU-ONE-0" class=" edge-thickness-normal edge-pattern-solid flowchart-link LS-MENU LE-ONE" marker-end="url(#mm-decision-pathway_flowchart-pointEnd)"></path><path d="M213.822,725.048L218.991,732.938C224.16,740.829,234.499,756.611,239.668,772.502C244.837,788.393,244.837,804.393,244.837,820.393C244.837,836.393,244.837,852.393,244.837,865.093C244.837,877.793,244.837,887.193,244.837,891.893L244.837,896.593" id="mm-decision-pathway-L-ONE-AUTO-0" class=" edge-thickness-normal edge-pattern-solid flowchart-link LS-ONE LE-AUTO" marker-end="url(#mm-decision-pathway_flowchart-pointEnd)"></path><path d="M165.472,719.387L156.385,728.222C147.298,737.056,129.123,754.724,120.036,767.092C110.948,779.459,110.948,786.526,110.948,790.059L110.948,793.593" id="mm-decision-pathway-L-ONE-ASK-0" class=" edge-thickness-normal edge-pattern-solid flowchart-link LS-ONE LE-ASK" marker-end="url(#mm-decision-pathway_flowchart-pointEnd)"></path><path d="M110.948,841.893L110.948,846.309C110.948,850.726,110.948,859.559,107.192,867.765C103.435,875.971,95.922,883.55,92.165,887.339L88.408,891.129" id="mm-decision-pathway-L-ASK-H-0" class=" edge-thickness-normal edge-pattern-dotted flowchart-link LS-ASK LE-H" marker-end="url(#mm-decision-pathway_flowchart-pointEnd)"></path><path d="M63.363,937.893L63.363,940.726C63.363,943.559,63.363,949.226,78.816,954.742C94.268,960.257,125.174,965.622,140.626,968.304L156.079,970.986" id="mm-decision-pathway-L-H-A-0" class=" edge-thickness-normal edge-pattern-solid flowchart-link LS-H LE-A" marker-end="url(#mm-decision-pathway_flowchart-pointEnd)"></path><path d="M244.837,930.893L244.837,934.893C244.837,938.893,244.837,946.893,244.837,952.843C244.837,958.793,244.837,962.693,244.837,964.643L244.837,966.593" id="mm-decision-pathway-L-AUTO-A-0" class=" edge-thickness-normal edge-pattern-solid flowchart-link LS-AUTO LE-A" marker-end="url(#mm-decision-pathway_flowchart-pointEnd)"></path><path d="M183.119,835.482L209.355,840.967C235.59,846.452,288.061,857.422,314.297,870.907C340.532,884.393,340.532,900.393,340.532,914.809C340.532,929.226,340.532,942.059,332.764,951.033C324.995,960.007,309.458,965.121,301.69,967.678L293.921,970.235" id="mm-decision-pathway-L-ASK-A-0" class=" edge-thickness-normal edge-pattern-solid flowchart-link LS-ASK LE-A" marker-end="url(#mm-decision-pathway_flowchart-pointEnd)"></path></g><g class="edgeLabels"><g class="edgeLabel"><g class="label" transform="translate(0, 0)"><rect rx="0" ry="0" width="0" height="0"></rect><text><tspan xml:space="preserve" dy="1em" x="0" class="row"></tspan></text></g></g><g class="edgeLabel"><g class="label" transform="translate(0, 0)"><rect rx="0" ry="0" width="0" height="0"></rect><text><tspan xml:space="preserve" dy="1em" x="0" class="row"></tspan></text></g></g><g class="edgeLabel"><g class="label" transform="translate(0, 0)"><rect rx="0" ry="0" width="0" height="0"></rect><text><tspan xml:space="preserve" dy="1em" x="0" class="row"></tspan></text></g></g><g class="edgeLabel"><g class="label" transform="translate(0, 0)"><rect rx="0" ry="0" width="0" height="0"></rect><text><tspan xml:space="preserve" dy="1em" x="0" class="row"></tspan></text></g></g><g class="edgeLabel"><g class="label" transform="translate(0, 0)"><rect rx="0" ry="0" width="0" height="0"></rect><text><tspan xml:space="preserve" dy="1em" x="0" class="row"></tspan></text></g></g><g class="edgeLabel" transform="translate(15.77734375, 692.1416015625)"><g class="label" transform="translate(-8.0703125, -9.5)"><rect rx="0" ry="0" width="16.125446319580078" height="19.000526428222656"></rect><text><tspan xml:space="preserve" dy="1em" x="0" class="row">no</tspan></text></g></g><g class="edgeLabel" transform="translate(191.977294921875, 534.890625)"><g class="label" transform="translate(-10.5478515625, -9.5)"><rect rx="0" ry="0" width="21.086200714111328" height="19.000526428222656"></rect><text><tspan xml:space="preserve" dy="1em" x="0" class="row">yes</tspan></text></g></g><g class="edgeLabel"><g class="label" transform="translate(0, 0)"><rect rx="0" ry="0" width="0" height="0"></rect><text><tspan xml:space="preserve" dy="1em" x="0" class="row"></tspan></text></g></g><g class="edgeLabel" transform="translate(244.836669921875, 820.392578125)"><g class="label" transform="translate(-10.5478515625, -9.5)"><rect rx="0" ry="0" width="21.086200714111328" height="19.000526428222656"></rect><text><tspan xml:space="preserve" dy="1em" x="0" class="row">yes</tspan></text></g></g><g class="edgeLabel" transform="translate(110.9482421875, 772.392578125)"><g class="label" transform="translate(-8.0703125, -9.5)"><rect rx="0" ry="0" width="16.125446319580078" height="19.000526428222656"></rect><text><tspan xml:space="preserve" dy="1em" x="0" class="row">no</tspan></text></g></g><g class="edgeLabel" transform="translate(110.9482421875, 868.392578125)"><g class="label" transform="translate(-48.53759765625, -9.5)"><rect rx="0" ry="0" width="97.01275634765625" height="19.000526428222656"></rect><text><tspan xml:space="preserve" dy="1em" x="0" class="row">no valid answer</tspan></text></g></g><g class="edgeLabel"><g class="label" transform="translate(0, 0)"><rect rx="0" ry="0" width="0" height="0"></rect><text><tspan xml:space="preserve" dy="1em" x="0" class="row"></tspan></text></g></g><g class="edgeLabel"><g class="label" transform="translate(0, 0)"><rect rx="0" ry="0" width="0" height="0"></rect><text><tspan xml:space="preserve" dy="1em" x="0" class="row"></tspan></text></g></g><g class="edgeLabel"><g class="label" transform="translate(0, 0)"><rect rx="0" ry="0" width="0" height="0"></rect><text><tspan xml:space="preserve" dy="1em" x="0" class="row"></tspan></text></g></g></g><g class="nodes"><g class="node default default flowchart-label" id="mm-decision-pathway-flowchart-E-275" data-node="true" data-id="mm-decision-pathway-E" transform="translate(144.391845703125, 21.5)"><rect rx="21.5" ry="21.5" x="-106.09228515625" y="-21.5" width="212.1845703125" height="43"></rect><g class="label" transform="translate(0, -16.5)"><rect></rect><text><tspan xml:space="preserve" dy="1em" x="0" class="row">the engine asks a seat:</tspan><tspan xml:space="preserve" dy="1em" x="0" class="row">move, suggest, accuse or show</tspan></text></g></g><g class="node default default flowchart-label" id="mm-decision-pathway-flowchart-OBS-276" data-node="true" data-id="mm-decision-pathway-OBS" transform="translate(144.391845703125, 98.5)"><rect class="basic label-container" rx="0" ry="0" x="-81.6484375" y="-21.5" width="163.296875" height="43"></rect><g class="label" transform="translate(0, -16.5)"><rect></rect><text><tspan xml:space="preserve" dy="1em" x="0" class="row">that seat's view:</tspan><tspan xml:space="preserve" dy="1em" x="0" class="row">own hand, the public log</tspan></text></g></g><g class="node default floorc flowchart-label" id="mm-decision-pathway-flowchart-F-278" data-node="true" data-id="mm-decision-pathway-F" transform="translate(144.391845703125, 175.5)"><rect class="basic label-container" rx="0" ry="0" x="-54.1953125" y="-21.5" width="108.390625" height="43"></rect><g class="label" transform="translate(0, -16.5)"><rect></rect><text><tspan xml:space="preserve" dy="1em" x="0" class="row">deduction floor:</tspan><tspan xml:space="preserve" dy="1em" x="0" class="row">what is certain</tspan></text></g></g><g class="node default method flowchart-label" id="mm-decision-pathway-flowchart-M-280" data-node="true" data-id="mm-decision-pathway-M" transform="translate(144.391845703125, 252.5)"><rect class="basic label-container" rx="0" ry="0" x="-82.4091796875" y="-21.5" width="164.818359375" height="43"></rect><g class="label" transform="translate(0, -16.5)"><rect></rect><text><tspan xml:space="preserve" dy="1em" x="0" class="row">the character's method:</tspan><tspan xml:space="preserve" dy="1em" x="0" class="row">belief, and its own scores</tspan></text></g></g><g class="node default method flowchart-label" id="mm-decision-pathway-flowchart-C-282" data-node="true" data-id="mm-decision-pathway-C" transform="translate(144.391845703125, 329.5)"><rect class="basic label-container" rx="0" ry="0" x="-78.494140625" y="-21.5" width="156.98828125" height="43"></rect><g class="label" transform="translate(0, -16.5)"><rect></rect><text><tspan xml:space="preserve" dy="1em" x="0" class="row">Character: the dials</tspan><tspan xml:space="preserve" dy="1em" x="0" class="row">threshold, bluff, secrecy</tspan></text></g></g><g class="node default default flowchart-label" id="mm-decision-pathway-flowchart-Q-284" data-node="true" data-id="mm-decision-pathway-Q" transform="translate(144.391845703125, 446.6953125)"><polygon points="61.6953125,0 123.390625,-61.6953125 61.6953125,-123.390625 0,-61.6953125" class="label-container" transform="translate(-61.6953125,61.6953125)"></polygon><g class="label" transform="translate(0, -16.5)"><rect></rect><text><tspan xml:space="preserve" dy="1em" x="0" class="row">a model</tspan><tspan xml:space="preserve" dy="1em" x="0" class="row">in the seat?</tspan></text></g></g><g class="node default method flowchart-label" id="mm-decision-pathway-flowchart-H-286" data-node="true" data-id="mm-decision-pathway-H" transform="translate(63.36279296875, 916.392578125)"><rect class="basic label-container" rx="0" ry="0" x="-63.36279296875" y="-21.5" width="126.7255859375" height="43"></rect><g class="label" transform="translate(0, -16.5)"><rect></rect><text><tspan xml:space="preserve" dy="1em" x="0" class="row">headless: sample</tspan><tspan xml:space="preserve" dy="1em" x="0" class="row">at the temperature</tspan></text></g></g><g class="node default gate flowchart-label" id="mm-decision-pathway-flowchart-MENU-288" data-node="true" data-id="mm-decision-pathway-MENU" transform="translate(191.977294921875, 582.890625)"><rect class="basic label-container" rx="0" ry="0" x="-61.306640625" y="-21.5" width="122.61328125" height="43"></rect><g class="label" transform="translate(0, -16.5)"><rect></rect><text><tspan xml:space="preserve" dy="1em" x="0" class="row">menu: the options</tspan><tspan xml:space="preserve" dy="1em" x="0" class="row">within the leash</tspan></text></g></g><g class="node default default flowchart-label" id="mm-decision-pathway-flowchart-ONE-290" data-node="true" data-id="mm-decision-pathway-ONE" transform="translate(191.977294921875, 692.1416015625)"><polygon points="53.7509765625,0 107.501953125,-53.7509765625 53.7509765625,-107.501953125 0,-53.7509765625" class="label-container" transform="translate(-53.7509765625,53.7509765625)"></polygon><g class="label" transform="translate(0, -16.5)"><rect></rect><text><tspan xml:space="preserve" dy="1em" x="0" class="row">only one</tspan><tspan xml:space="preserve" dy="1em" x="0" class="row">allowed?</tspan></text></g></g><g class="node default method flowchart-label" id="mm-decision-pathway-flowchart-AUTO-292" data-node="true" data-id="mm-decision-pathway-AUTO" transform="translate(244.836669921875, 916.392578125)"><rect class="basic label-container" rx="0" ry="0" x="-72.6953125" y="-14.5" width="145.390625" height="29"></rect><g class="label" transform="translate(0, -9.5)"><rect></rect><text><tspan xml:space="preserve" dy="1em" x="0" class="row">played without asking</tspan></text></g></g><g class="node default gate flowchart-label" id="mm-decision-pathway-flowchart-ASK-294" data-node="true" data-id="mm-decision-pathway-ASK" transform="translate(110.9482421875, 820.392578125)"><rect class="basic label-container" rx="0" ry="0" x="-72.1708984375" y="-21.5" width="144.341796875" height="43"></rect><g class="label" transform="translate(0, -16.5)"><rect></rect><text><tspan xml:space="preserve" dy="1em" x="0" class="row">the model chooses,</tspan><tspan xml:space="preserve" dy="1em" x="0" class="row">in the persona's voice</tspan></text></g></g><g class="node default default flowchart-label" id="mm-decision-pathway-flowchart-A-298" data-node="true" data-id="mm-decision-pathway-A" transform="translate(244.836669921875, 986.392578125)"><rect rx="14.5" ry="14.5" x="-100.90771484375" y="-14.5" width="201.8154296875" height="29"></rect><g class="label" transform="translate(0, -9.5)"><rect></rect><text><tspan xml:space="preserve" dy="1em" x="0" class="row">the action, back to the engine</tspan></text></g></g></g></g></g></svg>
