<svg class="fig fig-mermaid" id="mm-scarlett-update" viewBox="-8 -8 479.65283203125 586.40625" width="480" height="586" style="min-width:360px" role="img" aria-label="Scarlett's whole method" xmlns="http://www.w3.org/2000/svg"><g><marker id="mm-scarlett-update_flowchart-pointEnd" class="marker flowchart" viewBox="0 0 10 10" refX="6" refY="5" markerUnits="userSpaceOnUse" markerWidth="12" markerHeight="12" orient="auto"><path d="M 0 0 L 10 5 L 0 10 z" class="arrowMarkerPath"></path></marker><marker id="mm-scarlett-update_flowchart-pointStart" class="marker flowchart" viewBox="0 0 10 10" refX="4.5" refY="5" markerUnits="userSpaceOnUse" markerWidth="12" markerHeight="12" orient="auto"><path d="M 0 5 L 10 10 L 10 0 z" class="arrowMarkerPath"></path></marker><marker id="mm-scarlett-update_flowchart-circleEnd" class="marker flowchart" viewBox="0 0 10 10" refX="11" refY="5" markerUnits="userSpaceOnUse" markerWidth="11" markerHeight="11" orient="auto"><circle cx="5" cy="5" r="5" class="arrowMarkerPath"></circle></marker><marker id="mm-scarlett-update_flowchart-circleStart" class="marker flowchart" viewBox="0 0 10 10" refX="-1" refY="5" markerUnits="userSpaceOnUse" markerWidth="11" markerHeight="11" orient="auto"><circle cx="5" cy="5" r="5" class="arrowMarkerPath"></circle></marker><marker id="mm-scarlett-update_flowchart-crossEnd" class="marker cross flowchart" viewBox="0 0 11 11" refX="12" refY="5.2" markerUnits="userSpaceOnUse" markerWidth="11" markerHeight="11" orient="auto"><path d="M 1,1 l 9,9 M 10,1 l -9,9" class="arrowMarkerPath"></path></marker><marker id="mm-scarlett-update_flowchart-crossStart" class="marker cross flowchart" viewBox="0 0 11 11" refX="-1" refY="5.2" markerUnits="userSpaceOnUse" markerWidth="11" markerHeight="11" orient="auto"><path d="M 1,1 l 9,9 M 10,1 l -9,9" class="arrowMarkerPath"></path></marker><g class="root"><g class="clusters"></g><g class="edgePaths"><path d="M221.359,27L221.359,29.833C221.359,32.667,221.359,38.333,221.417,43.2C221.476,48.067,221.592,52.135,221.65,54.168L221.708,56.202" id="mm-scarlett-update-L-S-L-0" class=" edge-thickness-normal edge-pattern-solid flowchart-link LS-S LE-L" marker-end="url(#mm-scarlett-update_flowchart-pointEnd)"></path><path d="M171.512,172.559L152.812,183.7C134.112,194.841,96.712,217.124,78.012,230.215C59.313,243.306,59.313,247.206,59.313,249.156L59.313,251.106" id="mm-scarlett-update-L-L-U-0" class=" edge-thickness-normal edge-pattern-solid flowchart-link LS-L LE-U" marker-end="url(#mm-scarlett-update_flowchart-pointEnd)"></path><path d="M221.859,222.906L221.776,225.656C221.693,228.406,221.526,233.906,221.443,238.606C221.359,243.306,221.359,247.206,221.359,249.156L221.359,251.106" id="mm-scarlett-update-L-L-R-0" class=" edge-thickness-normal edge-pattern-solid flowchart-link LS-L LE-R" marker-end="url(#mm-scarlett-update_flowchart-pointEnd)"></path><path d="M272.932,171.834L292.404,183.096C311.877,194.358,350.821,216.882,370.293,231.261C389.766,245.64,389.766,251.873,389.766,254.99L389.766,258.106" id="mm-scarlett-update-L-L-K-0" class=" edge-thickness-normal edge-pattern-solid flowchart-link LS-L LE-K" marker-end="url(#mm-scarlett-update_flowchart-pointEnd)"></path><path d="M59.313,297.406L59.313,300.24C59.313,303.073,59.313,308.74,59.313,313.523C59.313,318.306,59.313,322.206,59.313,324.156L59.313,326.106" id="mm-scarlett-update-L-U-UB-0" class=" edge-thickness-normal edge-pattern-solid flowchart-link LS-U LE-UB" marker-end="url(#mm-scarlett-update_flowchart-pointEnd)"></path><path d="M221.359,297.406L221.359,300.24C221.359,303.073,221.359,308.74,221.359,313.523C221.359,318.306,221.359,322.206,221.359,324.156L221.359,326.106" id="mm-scarlett-update-L-R-RB-0" class=" edge-thickness-normal edge-pattern-solid flowchart-link LS-R LE-RB" marker-end="url(#mm-scarlett-update_flowchart-pointEnd)"></path><path d="M389.766,290.406L389.766,294.406C389.766,298.406,389.766,306.406,389.766,312.356C389.766,318.306,389.766,322.206,389.766,324.156L389.766,326.106" id="mm-scarlett-update-L-K-KB-0" class=" edge-thickness-normal edge-pattern-solid flowchart-link LS-K LE-KB" marker-end="url(#mm-scarlett-update_flowchart-pointEnd)"></path><path d="M59.313,372.406L59.313,375.24C59.313,378.073,59.313,383.74,75.049,389.535C90.785,395.33,122.257,401.253,137.993,404.215L153.729,407.177" id="mm-scarlett-update-L-UB-M-0" class=" edge-thickness-normal edge-pattern-solid flowchart-link LS-UB LE-M" marker-end="url(#mm-scarlett-update_flowchart-pointEnd)"></path><path d="M221.359,372.406L221.359,375.24C221.359,378.073,221.359,383.74,221.359,388.523C221.359,393.306,221.359,397.206,221.359,399.156L221.359,401.106" id="mm-scarlett-update-L-RB-M-0" class=" edge-thickness-normal edge-pattern-solid flowchart-link LS-RB LE-M" marker-end="url(#mm-scarlett-update_flowchart-pointEnd)"></path><path d="M389.766,372.406L389.766,375.24C389.766,378.073,389.766,383.74,372.971,389.615C356.176,395.49,322.586,401.573,305.791,404.615L288.996,407.657" id="mm-scarlett-update-L-KB-M-0" class=" edge-thickness-normal edge-pattern-solid flowchart-link LS-KB LE-M" marker-end="url(#mm-scarlett-update_flowchart-pointEnd)"></path><path d="M221.359,433.406L221.359,436.24C221.359,439.073,221.359,444.74,221.359,449.523C221.359,454.306,221.359,458.206,221.359,460.156L221.359,462.106" id="mm-scarlett-update-L-M-N-0" class=" edge-thickness-normal edge-pattern-solid flowchart-link LS-M LE-N" marker-end="url(#mm-scarlett-update_flowchart-pointEnd)"></path><path d="M221.359,509.406L221.359,512.24C221.359,515.073,221.359,520.74,221.359,525.523C221.359,530.306,221.359,534.206,221.359,536.156L221.359,538.106" id="mm-scarlett-update-L-N-B-0" class=" edge-thickness-normal edge-pattern-solid flowchart-link LS-N LE-B" marker-end="url(#mm-scarlett-update_flowchart-pointEnd)"></path></g><g class="edgeLabels"><g class="edgeLabel"><g class="label" transform="translate(0, 0)"><rect rx="0" ry="0" width="0" height="0"></rect><text><tspan xml:space="preserve" dy="1em" x="0" class="row"></tspan></text></g></g><g class="edgeLabel"><g class="label" transform="translate(0, 0)"><rect rx="0" ry="0" width="0" height="0"></rect><text><tspan xml:space="preserve" dy="1em" x="0" class="row"></tspan></text></g></g><g class="edgeLabel"><g class="label" transform="translate(0, 0)"><rect rx="0" ry="0" width="0" height="0"></rect><text><tspan xml:space="preserve" dy="1em" x="0" class="row"></tspan></text></g></g><g class="edgeLabel"><g class="label" transform="translate(0, 0)"><rect rx="0" ry="0" width="0" height="0"></rect><text><tspan xml:space="preserve" dy="1em" x="0" class="row"></tspan></text></g></g><g class="edgeLabel"><g class="label" transform="translate(0, 0)"><rect rx="0" ry="0" width="0" height="0"></rect><text><tspan xml:space="preserve" dy="1em" x="0" class="row"></tspan></text></g></g><g class="edgeLabel"><g class="label" transform="translate(0, 0)"><rect rx="0" ry="0" width="0" height="0"></rect><text><tspan xml:space="preserve" dy="1em" x="0" class="row"></tspan></text></g></g><g class="edgeLabel"><g class="label" transform="translate(0, 0)"><rect rx="0" ry="0" width="0" height="0"></rect><text><tspan xml:space="preserve" dy="1em" x="0" class="row"></tspan></text></g></g><g class="edgeLabel"><g class="label" transform="translate(0, 0)"><rect rx="0" ry="0" width="0" height="0"></rect><text><tspan xml:space="preserve" dy="1em" x="0" class="row"></tspan></text></g></g><g class="edgeLabel"><g class="label" transform="translate(0, 0)"><rect rx="0" ry="0" width="0" height="0"></rect><text><tspan xml:space="preserve" dy="1em" x="0" class="row"></tspan></text></g></g><g class="edgeLabel"><g class="label" transform="translate(0, 0)"><rect rx="0" ry="0" width="0" height="0"></rect><text><tspan xml:space="preserve" dy="1em" x="0" class="row"></tspan></text></g></g><g class="edgeLabel"><g class="label" transform="translate(0, 0)"><rect rx="0" ry="0" width="0" height="0"></rect><text><tspan xml:space="preserve" dy="1em" x="0" class="row"></tspan></text></g></g><g class="edgeLabel"><g class="label" transform="translate(0, 0)"><rect rx="0" ry="0" width="0" height="0"></rect><text><tspan xml:space="preserve" dy="1em" x="0" class="row"></tspan></text></g></g></g><g class="nodes"><g class="node default default flowchart-label" id="mm-scarlett-update-flowchart-S-69" data-node="true" data-id="mm-scarlett-update-S" transform="translate(221.359375, 13.5)"><rect rx="13.5" ry="13.5" x="-83.4921875" y="-13.5" width="166.984375" height="27"></rect><g class="label" transform="translate(0, -8.5)"><rect></rect><text><tspan xml:space="preserve" dy="1em" x="0" class="row">every card starts at 1.0</tspan></text></g></g><g class="node default default flowchart-label" id="mm-scarlett-update-flowchart-L-70" data-node="true" data-id="mm-scarlett-update-L" transform="translate(221.359375, 141.703125)"><polygon points="80.703125,0 161.40625,-80.703125 80.703125,-161.40625 0,-80.703125" class="label-container" transform="translate(-80.703125,80.703125)"></polygon><g class="label" transform="translate(0, -16)"><rect></rect><text><tspan xml:space="preserve" dy="1em" x="0" class="row">each suggestion</tspan><tspan xml:space="preserve" dy="1em" x="0" class="row">in the log</tspan></text></g></g><g class="node default default flowchart-label" id="mm-scarlett-update-flowchart-U-72" data-node="true" data-id="mm-scarlett-update-U" transform="translate(59.3125, 276.90625)"><rect class="basic label-container" rx="0" ry="0" x="-59.3125" y="-20.5" width="118.625" height="41"></rect><g class="label" transform="translate(0, -15.5)"><rect></rect><text><tspan xml:space="preserve" dy="1em" x="0" class="row">nobody refuted</tspan><tspan xml:space="preserve" dy="1em" x="0" class="row">(refuter is None)</tspan></text></g></g><g class="node default default flowchart-label" id="mm-scarlett-update-flowchart-R-74" data-node="true" data-id="mm-scarlett-update-R" transform="translate(221.359375, 276.90625)"><rect class="basic label-container" rx="0" ry="0" x="-76.734375" y="-20.5" width="153.46875" height="41"></rect><g class="label" transform="translate(0, -15.5)"><rect></rect><text><tspan xml:space="preserve" dy="1em" x="0" class="row">refuted, card unseen</tspan><tspan xml:space="preserve" dy="1em" x="0" class="row">(card_shown is None)</tspan></text></g></g><g class="node default default flowchart-label" id="mm-scarlett-update-flowchart-K-76" data-node="true" data-id="mm-scarlett-update-K" transform="translate(389.765625, 276.90625)"><rect class="basic label-container" rx="0" ry="0" x="-65.671875" y="-13.5" width="131.34375" height="27"></rect><g class="label" transform="translate(0, -8.5)"><rect></rect><text><tspan xml:space="preserve" dy="1em" x="0" class="row">refuted, card seen</tspan></text></g></g><g class="node default up flowchart-label" id="mm-scarlett-update-flowchart-UB-78" data-node="true" data-id="mm-scarlett-update-UB" transform="translate(59.3125, 351.90625)"><rect class="basic label-container" rx="0" ry="0" x="-51.8671875" y="-20.5" width="103.734375" height="41"></rect><g class="label" transform="translate(0, -15.5)"><rect></rect><text><tspan xml:space="preserve" dy="1em" x="0" class="row">all three cards</tspan><tspan xml:space="preserve" dy="1em" x="0" class="row">× 2.0</tspan></text></g></g><g class="node default down flowchart-label" id="mm-scarlett-update-flowchart-RB-80" data-node="true" data-id="mm-scarlett-update-RB" transform="translate(221.359375, 351.90625)"><rect class="basic label-container" rx="0" ry="0" x="-51.8671875" y="-20.5" width="103.734375" height="41"></rect><g class="label" transform="translate(0, -15.5)"><rect></rect><text><tspan xml:space="preserve" dy="1em" x="0" class="row">all three cards</tspan><tspan xml:space="preserve" dy="1em" x="0" class="row">× 0.667</tspan></text></g></g><g class="node default flat flowchart-label" id="mm-scarlett-update-flowchart-KB-82" data-node="true" data-id="mm-scarlett-update-KB" transform="translate(389.765625, 351.90625)"><rect class="basic label-container" rx="0" ry="0" x="-73.88720703125" y="-20.5" width="147.7744140625" height="41"></rect><g class="label" transform="translate(0, -15.5)"><rect></rect><text><tspan xml:space="preserve" dy="1em" x="0" class="row">no soft update:</tspan><tspan xml:space="preserve" dy="1em" x="0" class="row">the floor has the fact</tspan></text></g></g><g class="node default default flowchart-label" id="mm-scarlett-update-flowchart-M-84" data-node="true" data-id="mm-scarlett-update-M" transform="translate(221.359375, 419.90625)"><rect class="basic label-container" rx="0" ry="0" x="-62.421875" y="-13.5" width="124.84375" height="27"></rect><g class="label" transform="translate(0, -8.5)"><rect></rect><text><tspan xml:space="preserve" dy="1em" x="0" class="row">mask by the floor</tspan></text></g></g><g class="node default default flowchart-label" id="mm-scarlett-update-flowchart-N-90" data-node="true" data-id="mm-scarlett-update-N" transform="translate(221.359375, 488.40625)"><rect class="basic label-container" rx="0" ry="0" x="-74.37548828125" y="-21" width="148.7509765625" height="42"></rect><g class="label" transform="translate(0, -16)"><rect></rect><text><tspan xml:space="preserve" dy="1em" x="0" class="row">renormalise</tspan><tspan xml:space="preserve" dy="1em" x="0" class="row">within each category</tspan></text></g></g><g class="node default default flowchart-label" id="mm-scarlett-update-flowchart-B-92" data-node="true" data-id="mm-scarlett-update-B" transform="translate(221.359375, 556.90625)"><rect rx="13.5" ry="13.5" x="-42.1328125" y="-13.5" width="84.265625" height="27"></rect><g class="label" transform="translate(0, -8.5)"><rect></rect><text><tspan xml:space="preserve" dy="1em" x="0" class="row">ClueBelief</tspan></text></g></g></g></g></g></svg>
